/* XPM */
static char *fa68fe3ef0b84ed9eb658bf58d15fcbbVzUjDNQa9YFgaotZ[] = {
/* columns rows colors chars-per-pixel */
"16 16 92 1 ",
"  c gray63",
". c #959595",
"X c gray51",
"o c #6C6C6C",
"O c gray30",
"+ c gray29",
"@ c gray43",
"# c #A5A5A5",
"$ c #7C7C7C",
"% c #555555",
"& c gray13",
"* c gray46",
"= c gray49",
"- c #2C2C2C",
"; c gray36",
": c #8B8B8B",
"> c #484848",
", c #232323",
"< c #494949",
"1 c gray44",
"2 c gray15",
"3 c gray11",
"4 c gray47",
"5 c #2A2A2A",
"6 c #717171",
"7 c gray37",
"8 c gray22",
"9 c #A9A9A9",
"0 c gray33",
"q c gray18",
"w c gray60",
"e c gray66",
"r c #A4A4A4",
"t c #727272",
"y c #939393",
"u c gray55",
"i c gray54",
"p c #414141",
"a c DimGray",
"s c #9A9A9A",
"d c #5F5F5F",
"f c #6A6A6A",
"g c gray40",
"h c #777777",
"j c #B7B7B7",
"k c #505050",
"l c #4E4E4E",
"z c #7B7B7B",
"x c #929292",
"c c gray42",
"v c #444444",
"b c gray14",
"n c gray26",
"m c gray25",
"M c #4B4B4B",
"N c gray23",
"B c gray31",
"V c gray70",
"C c #1B1B1B",
"Z c gray67",
"A c #5A5A5A",
"S c #979797",
"D c #4C4C4C",
"F c #393939",
"G c #2F2F2F",
"H c #191919",
"J c #2D2D2D",
"K c #565656",
"L c #7E7E7E",
"P c #838383",
"I c gray45",
"U c #898989",
"Y c gray56",
"T c #5B5B5B",
"R c #808080",
"E c gray61",
"W c #373737",
"Q c gray16",
"! c #8E8E8E",
"~ c #686868",
"^ c #5D5D5D",
"/ c #A7A7A7",
"( c gray75",
") c #767676",
"_ c #626262",
"` c gray20",
"' c gray57",
"] c #656565",
"[ c gray24",
"{ c gray12",
"} c #9F9F9F",
"| c gray27",
/* pixels */
"   .XoO++   @+#$",
"  %o&+  +o*o=-;:",
">oo,<  1234o5++6",
"782+90Xo5<5q+we<",
"r ++ ttq+yuipas+",
"dtf+gho5wjg*k<,-",
"ooo+%55Olzxodocv",
"oobns +mMN5*o5BV",
"fC+Z oA ScDFGHj ",
"4+ #*J KZ=L+MVoo",
"+.goo2 PooI5D+U6",
"++YfT5o@Ro5mE++5",
"  5555koWQ !oo++",
"9~^eS/+5k(yoRo)Q",
"_)`'1gc+++o=hXq5",
"]_d[{{5+}@|MWFqB"
};
