/* XPM */
static char *_605c59d1fd94564c196a32a66603918794SJjfoXfqh1yG2[] = {
/* columns rows colors chars-per-pixel */
"64 64 7 1 ",
"  c #5A595A",
". c gray39",
"X c #6A6D6A",
"o c #787678",
"O c gray50",
"+ c #8B898B",
"@ c #9C999C",
/* pixels */
"....OOOO@@@@@@@@oooo@@@@@@@@@@@@OOOO@@@@@@@@@@@@++++++++++++    ",
"....OOOO@@@@@@@@oooo@@@@@@@@@@@@OOOO@@@@@@@@@@@@++++++++++++    ",
"....OOOO@@@@@@@@oooo@@@@@@@@@@@@OOOO@@@@@@@@@@@@++++++++++++    ",
"....OOOO@@@@@@@@oooo@@@@@@@@@@@@OOOO@@@@@@@@@@@@++++++++++++    ",
"XXXXOOOOOOOOOOOO....OOOO++++++++oooo++++OOOO++++OOOO++++OOOO    ",
"XXXXOOOOOOOOOOOO....OOOO++++++++oooo++++OOOO++++OOOO++++OOOO    ",
"XXXXOOOOOOOOOOOO....OOOO++++++++oooo++++OOOO++++OOOO++++OOOO    ",
"XXXXOOOOOOOOOOOO....OOOO++++++++oooo++++OOOO++++OOOO++++OOOO    ",
"@@@@OOOO........ooooOOOOOOOO++++OOOOXXXXOOOOOOOO....OOOOOOOO    ",
"@@@@OOOO........ooooOOOOOOOO++++OOOOXXXXOOOOOOOO....OOOOOOOO    ",
"@@@@OOOO........ooooOOOOOOOO++++OOOOXXXXOOOOOOOO....OOOOOOOO    ",
"@@@@OOOO........ooooOOOOOOOO++++OOOOXXXXOOOOOOOO....OOOOOOOO    ",
"oooo....++++@@@@    OOOOOOOOOOOOOOOOOOOO............oooooooo    ",
"oooo....++++@@@@    OOOOOOOOOOOOOOOOOOOO............oooooooo    ",
"oooo....++++@@@@    OOOOOOOOOOOOOOOOOOOO............oooooooo    ",
"oooo....++++@@@@    OOOOOOOOOOOOOOOOOOOO............oooooooo    ",
"@@@@OOOOooooOOOO++++....ooooOOOOooooOOOOoooo....OOOOooooXXXX    ",
"@@@@OOOOooooOOOO++++....ooooOOOOooooOOOOoooo....OOOOooooXXXX    ",
"@@@@OOOOooooOOOO++++....ooooOOOOooooOOOOoooo....OOOOooooXXXX    ",
"@@@@OOOOooooOOOO++++....ooooOOOOooooOOOOoooo....OOOOooooXXXX    ",
"++++ooooooooooooooooooooOOOOXXXX++++OOOOoooo++++....    oooo    ",
"++++ooooooooooooooooooooOOOOXXXX++++OOOOoooo++++....    oooo    ",
"++++ooooooooooooooooooooOOOOXXXX++++OOOOoooo++++....    oooo    ",
"++++ooooooooooooooooooooOOOOXXXX++++OOOOoooo++++....    oooo    ",
"ooooXXXXXXXXXXXXXXXXooooXXXXXXXXXXXXooooXXXXooooXXXX    ....    ",
"ooooXXXXXXXXXXXXXXXXooooXXXXXXXXXXXXooooXXXXooooXXXX    ....    ",
"ooooXXXXXXXXXXXXXXXXooooXXXXXXXXXXXXooooXXXXooooXXXX    ....    ",
"ooooXXXXXXXXXXXXXXXXooooXXXXXXXXXXXXooooXXXXooooXXXX    ....    ",
"........        ........            ............................",
"........        ........            ............................",
"........        ........            ............................",
"........        ........            ............................",
"@@@@@@@@@@@@....++++oooo....    OOOO++++    ++++@@@@@@@@@@@@@@@@",
"@@@@@@@@@@@@....++++oooo....    OOOO++++    ++++@@@@@@@@@@@@@@@@",
"@@@@@@@@@@@@....++++oooo....    OOOO++++    ++++@@@@@@@@@@@@@@@@",
"@@@@@@@@@@@@....++++oooo....    OOOO++++    ++++@@@@@@@@@@@@@@@@",
"OOOOOOOO++++XXXXOOOOOOOOXXXX    ++++oooo....ooooOOOO++++OOOO++++",
"OOOOOOOO++++XXXXOOOOOOOOXXXX    ++++oooo....ooooOOOO++++OOOO++++",
"OOOOOOOO++++XXXXOOOOOOOOXXXX    ++++oooo....ooooOOOO++++OOOO++++",
"OOOOOOOO++++XXXXOOOOOOOOXXXX    ++++oooo....ooooOOOO++++OOOO++++",
"++++++++OOOO++++....OOOOoooo    oooo....oooo++++++++OOOO....OOOO",
"++++++++OOOO++++....OOOOoooo    oooo....oooo++++++++OOOO....OOOO",
"++++++++OOOO++++....OOOOoooo    oooo....oooo++++++++OOOO....OOOO",
"++++++++OOOO++++....OOOOoooo    oooo....oooo++++++++OOOO....OOOO",
"OOOOOOOOOOOOOOOO    ....    ....@@@@OOOO++++OOOOOOOO....OOOOOOOO",
"OOOOOOOOOOOOOOOO    ....    ....@@@@OOOO++++OOOOOOOO....OOOOOOOO",
"OOOOOOOOOOOOOOOO    ....    ....@@@@OOOO++++OOOOOOOO....OOOOOOOO",
"OOOOOOOOOOOOOOOO    ....    ....@@@@OOOO++++OOOOOOOO....OOOOOOOO",
"OOOOOOOOOOOOXXXX@@@@++++++++    @@@@OOOOOOOOOOOO++++....ooooOOOO",
"OOOOOOOOOOOOXXXX@@@@++++++++    @@@@OOOOOOOOOOOO++++....ooooOOOO",
"OOOOOOOOOOOOXXXX@@@@++++++++    @@@@OOOOOOOOOOOO++++....ooooOOOO",
"OOOOOOOOOOOOXXXX@@@@++++++++    @@@@OOOOOOOOOOOO++++....ooooOOOO",
"ooooooooXXXX++++OOOOOOOOoooo    ++++ooooOOOOoooo++++    oooooooo",
"ooooooooXXXX++++OOOOOOOOoooo    ++++ooooOOOOoooo++++    oooooooo",
"ooooooooXXXX++++OOOOOOOOoooo    ++++ooooOOOOoooo++++    oooooooo",
"ooooooooXXXX++++OOOOOOOOoooo    ++++ooooOOOOoooo++++    oooooooo",
"XXXXXXXXooooXXXXooooooooOOOO    ooooXXXXXXXXooooXXXX        XXXX",
"XXXXXXXXooooXXXXooooooooOOOO    ooooXXXXXXXXooooXXXX        XXXX",
"XXXXXXXXooooXXXXooooooooOOOO    ooooXXXXXXXXooooXXXX        XXXX",
"XXXXXXXXooooXXXXooooooooOOOO    ooooXXXXXXXXooooXXXX        XXXX",
"........................                ........................",
"........................                ........................",
"........................                ........................",
"........................                ........................"
};
