/* XPM */
static char *d39360a33f504397821cc32be3ca61cdh1OU6m0RpS1e9KUb[] = {
/* columns rows colors chars-per-pixel */
"64 64 98 2 ",
"   c #535D3A",
".  c #536039",
"X  c #576D3C",
"o  c #596D3D",
"O  c #63793F",
"+  c #575A56",
"@  c #585956",
"#  c #575958",
"$  c #5A5A5A",
"%  c #576C40",
"&  c #5A6D41",
"*  c #637742",
"=  c #637942",
"-  c #636363",
";  c #6A6D67",
":  c #6B6D6B",
">  c #777777",
",  c #787677",
"<  c #777579",
"1  c #787679",
"2  c #7F7F7F",
"3  c #817E7F",
"4  c #74844F",
"5  c #748652",
"6  c #738851",
"7  c #7D8F57",
"8  c #7C8E56",
"9  c #7E8D56",
"0  c #7A8F56",
"q  c #7A8F58",
"w  c #7A8E5A",
"e  c #7C8E58",
"r  c #799152",
"t  c #799054",
"y  c #799056",
"u  c #7D9055",
"i  c #7C9155",
"p  c #7C9057",
"a  c #799058",
"s  c #7A9159",
"d  c #7C9059",
"f  c #7D807D",
"g  c #7C817D",
"h  c #7D807F",
"j  c #7E817E",
"k  c #80807E",
"l  c #7F7D80",
"z  c #7C7E80",
"x  c #7D7F81",
"c  c #7F7F81",
"v  c #817E81",
"b  c #827F80",
"n  c #817D83",
"m  c #827F82",
"M  c #7E8180",
"N  c #7E8182",
"B  c #808080",
"V  c #808082",
"C  c gray53",
"Z  c #86858A",
"A  c #8A8788",
"S  c #8B868A",
"D  c #8A878A",
"F  c #8D878B",
"G  c #8E878B",
"H  c #88878C",
"J  c #8D878D",
"K  c #888888",
"L  c #898989",
"P  c #8B8989",
"I  c #89898B",
"U  c #8B888B",
"Y  c #8B8B8B",
"T  c #8D8889",
"R  c #8E898B",
"E  c #8C8A8B",
"W  c #89898D",
"Q  c #8B888D",
"!  c #8B8A8D",
"~  c #8B8A8F",
"^  c #8C898D",
"/  c #8E898D",
"(  c #8C898F",
")  c #8E888F",
"_  c #8D8B8E",
"`  c #8C8B90",
"'  c #9A9A9A",
"]  c #9B9B9B",
"[  c #9B989C",
"{  c #999B9D",
"}  c #9B9A9D",
"|  c #9E999D",
" . c #9C9A9D",
".. c #9E9B9C",
"X. c #9C999F",
"o. c #9E989F",
"O. c #9E9B9E",
"+. c gray61",
/* pixels */
"U U U D  . . . .= = = = 5 5 5 5 5 5 5 5 0 0 0 0 0 0 0 p 5 5 5 5 = = = = [  . . .0 0 0 0 0 0 0 0 U U U U 5 5 5 5 q 0 y p         ",
"U U U D  . . . .= = = = 5 5 5 5 5 5 5 5 0 0 0 0 0 0 0 p 5 5 5 5 = = = = [  . . .0 0 0 0 0 0 0 0 U U U U 5 5 5 5 q 0 y p         ",
"U U U D  . . . .= = = = 5 5 5 5 5 5 5 5 0 0 0 0 0 0 0 p 5 5 5 5 = = = =  . . . .0 0 0 0 0 0 0 0 U U U U 5 5 5 5 q 0 0 8         ",
"D D D U ] ]  . .= = = = 5 5 5 5 5 5 5 5 e 8 e e 0 0 0 0 5 5 5 5 = = = =  . . .[ 8 0 8 8 0 a a a U U U T 4 6 5 5 q q q e         ",
" . . .] 2 2 2 2 U U H Q & o o o 0 0 0 e 5 5 5 5 0 0 0 p O = = = D D D D 2 h 2 2 B c 2 3 3 2 2 2 2 2 2 2 = = = = = = = = & o o o ",
" . . .] 2 3 3 v U U U Q & & & & 0 0 0 8 5 5 5 5 0 0 0 p O = = = U U U F N h h h 2 2 2 2 2 2 2 2 2 2 2 B = = = = = = = * & & & & ",
" . . . .v v v 3 U U U Q & & & & 0 0 0 e 5 5 5 5 q 0 0 p O = = = U U U U B 2 v 2 2 c h 2 2 2 3 3 3 3 3 B = = * * = = = = & & & & ",
" . . . .v v v v U U U U & & & & q q q q 5 5 5 5 q q q d = = = = U U U U B 2 2 c 3 c h 2 3 3 3 3 c c c B = = = = = = = O & & & & ",
" . . .[ U U Q U 2 2 2 2 & & & & 5 5 5 5 * * = = 5 5 5 5 = = = = 2 2 2 2 2 2 2 h 5 5 5 5 U U U U & & & & 2 3 c 2 = = = = + $ $ $ ",
" . . .[ U U Q U 2 2 2 2 & & & & 5 5 5 5 = = = = 5 5 5 5 = = = = h h h 2 2 2 h 2 5 5 5 5 U U U U & & & & 2 2 c 2 = = = = @ $ $ $ ",
" . . .[ U U U U 2 2 h h & & & & 5 5 5 5 * = = = 5 5 5 5 = = = = 2 2 2 2 2 2 c 2 5 5 5 5 F U U U % % % & 2 h 2 2 = = = = + $ $ $ ",
" . . .[ U U U U 2 2 h B o o o o 5 5 5 5 = = = = 5 5 5 5 = = = = 2 2 2 2 2 2 B v 5 5 5 5 U U U U & & & & 2 N k k = = * * + $ $ $ ",
" . . . .v v v v > > 1 , 2 2 2 2 & & & & F U U Q 5 5 5 5 > , , , 2 2 2 2 U U U U h 2 2 c 1 1 1 1 2 2 2 2 1 1 < < & & o o # $ $ $ ",
" . . .] 2 2 c c < < 1 1 v 2 2 2 & & & & U Q U U 5 5 5 5 1 1 1 1 2 2 2 v D U U U 2 h 2 2 > 1 1 1 2 2 2 v < 1 1 < & & & o $ $ $ $ ",
" . . .] 2 2 c v < < 1 1 v 2 2 2 & & & & U Q U U 5 5 5 5 1 1 1 1 2 2 2 v D U U U 2 h 2 2 > 1 1 1 2 2 2 v < 1 1 < & & & o $ $ $ $ ",
" . . .] 2 2 c v < < 1 1 v 2 2 2 & & & & U U U U 5 5 5 5 1 1 1 1 2 2 2 v D U U U 2 h 2 2 > 1 1 1 2 2 2 v > 1 1 < & & & o $ $ $ $ ",
" . . . .1 1 1 1 = = = = 1 1 1 1 1 1 1 1 3 2 2 c = = = = 2 2 2 2 2 2 2 2 = = = = 5 5 5 5 h 2 2 2 1 1 1 1 : : : : 2 2 2 2 $ $ $ $ ",
" . . . .1 1 1 1 = = = = 1 1 1 1 1 1 1 1 3 2 2 c = = = = 2 2 2 2 2 2 2 2 = = = = 5 5 5 5 h 2 2 2 1 1 1 1 : : : : 2 2 2 2 $ $ $ $ ",
" . . . .< 1 1 1 = = = = 1 1 1 1 1 1 1 1 3 2 2 c = = = = 2 2 2 2 2 2 2 2 = = = = 5 5 5 5 h 2 2 2 1 1 1 1 : : : : 2 2 2 2 $ $ $ $ ",
" . . . .1 1 1 1 * = = = > < < < > > > 1 3 v v h = = = = 2 v c v 2 B B B = = = = 5 5 5 4 N h c c < < < < : : : : 2 2 3 v $ $ $ $ ",
"U U U D < 1 1 1 % & o & * = = = B B 2 v > < < , 1 1 1 1 1 1 1 1 = = = = 5 5 5 5 = = = = & & & & & & & o B 3 2 2 > > 1 <         ",
"U U U U 1 1 1 1 & & & & = = = = 2 2 2 v 1 1 > < > , , 1 < < 1 1 = = = = 5 5 5 5 = = = = & o & & & & & & v 3 2 2 > > , ,         ",
"U U U U 1 1 1 1 & & & & = = = = 2 2 2 2 > > 1 1 > > 1 1 1 1 1 1 = = = = 5 5 5 5 = = = = & & & & & & & o v 3 2 v 1 1 1 1         ",
"U U U U 1 1 1 1 & & & & * = = = 2 2 2 v 1 1 1 1 , , 1 , 1 1 1 1 = = = = 5 5 5 5 * * = = & & & & & & & & N 2 c v 1 1 > 1 .       ",
"1 1 1 > : : : : & & & & o & & & : : : : > 1 1 > : : : : % o o X = = = = = = = * & & & & & & & & < < < < 1 1 , 1 v 2 2 c & o o o ",
"1 1 > > : : : : o & & & o & & & : : : : > 1 > > : : : : & & & o = = = = = = = = & % & & & & & & 1 1 1 1 1 1 , 1 v 2 h h & & & & ",
"1 1 1 1 : : : : & & & & & & & & : : : : , , 1 > : : : : & & & & = = = = = = = = & & & & & & & & 1 1 1 , 1 1 , 1 2 2 h c % & & & ",
"1 1 1 < : : : : o o & & & & & & : : : : > > < > : : : ; & & & & = = = = = = = = & & o o & & & & 1 1 1 < > < 1 1 2 h c 2 o o o o ",
"- - - - - - - - $ $ $ $         - - - - - - - - $ $ $ $ $ $ $ $ $ $ $ $                                 $ - - - - - - - - - - - ",
"- - - - - - - - $ $ $ $         - - - - - - - - $ $ $ $ $ $ $ $ $ $ $ $                                 - - - - - - - - - - - - ",
"- - - - - - - - $ $ $ $         - - - - - - - - $ $ $ $ $ $ $ $ $ $ $ $                                 - - - - - - - - - - - - ",
"- - - - - - - - $ $ $ $         - - - - - - - - $ $ $ $ $ $ $ $ $ $ $ $                                 - - - - - - - - - - - - ",
"0 0 0 8 8 8 8 8 5 5 5 5 [ [ [ [  . . . . . . . .U U U D $ $ $ $ U U U U [ [ [ [ [ [ [ [ [ [ [ [ [ [ [ [ 5 5 5 5 q y 0 0 0 0 0 0 ",
"0 0 0 8 8 8 8 8 5 5 5 5 [ [ [ [  . . . . . . . .U U U D $ $ $ $ U U U U [ [ [ [ [ [ [ [ [ [ [ [ [ [ [ [ 5 5 5 5 q y 0 0 0 0 0 0 ",
"0 0 0 8 8 8 8 8 5 5 5 5 [  . . . . . . . . . . .U U U D $ $ $ $ U U U U  . . . . . . . . . . . . . . . .5 5 5 5 q y 0 0 0 0 0 0 ",
"a a a 0 8 0 e e 5 5 5 5 ]  . . . . . .] ] ] ] ] U U U C $ $ $ $ D D D (  . . . . .+.] ] ]  . . . . . . .5 5 5 5 q q q 0 p p p p ",
"= = = = ( U U U U U U ( U U U U U U U U B B B B 2 2 2 2 $ $ $ $  . . .[ ( U J U v B 2 2 U U U U D D D ( ( U U T T T Q T 5 5 5 5 ",
"= = = = Q U U F F F F Q Q U U U U U U U B 2 2 2 2 2 2 2 $ $ $ $  . . . .( U J U v 2 2 2 U U U U U U U U U U Q F F U U U 5 5 5 5 ",
"= = = = ( F U U U U U U U U U U U U U U 2 2 2 2 2 2 v v $ $ $ $  . . .] U U J U 2 2 v v U U U U U U U U U U U Q F F U U 5 5 5 5 ",
"= = = = ( F U U U U U U U U U U U U U U 2 2 2 2 2 2 v v $ $ $ $  . . .] U U U U v 2 v v U U U U U U U U U U Q F F T U U 5 5 5 5 ",
"F F F ( v 2 2 2 2 2 2 2 U U U U 2 2 2 2 2 2 2 2 > > 1 1 $ $ $ $  . . .] B 2 2 2 1 1 1 < U U U U 1 1 1 1 U U F U = = = = 2 2 2 2 ",
"U U U ( k 2 2 h h 2 2 2 U U U U 2 2 2 2 2 2 2 2 > , 1 1 $ $ $ $  . . .] B 2 2 2 1 1 1 < U U U U 1 1 1 1 U U F U = = = = h 2 2 2 ",
"U U U U 2 2 2 2 2 2 v v U U U U 2 2 2 2 2 2 2 2 < < > > $ $ $ $  . . .] 2 2 v v 1 1 1 < U U U U > > > 1 U U Q U = = = = 2 2 2 2 ",
"( ( U U 2 2 2 2 2 2 c v ( U U U 2 2 2 2 2 2 2 c , , > > $ $ $ $  . . .] 2 2 v v 1 1 < 1 U U U U > > > 1 U U U U = = = = 2 2 2 2 ",
"v v v 2 U U U U U ( U ( v 2 2 2 2 2 2 h = = = = : : : : + $ $ $  . . .] > > 1 1 v v v v 1 1 1 1 2 2 2 v c c 2 2 X X X X Q U U U ",
"2 2 2 c U U U U U U U U 2 2 2 2 2 2 2 2 = = = = : : : : $ $ $ $  . . .[ 1 1 1 1 2 2 2 2 > 1 1 1 2 2 2 2 2 2 3 2 & & & & ( U U U ",
"2 2 2 v ( U U U U U U ( 2 2 2 2 2 2 2 c = = = = : : : : $ $ $ $  . . . .< 1 1 1 2 2 2 2 > 1 1 1 2 2 2 2 2 2 3 c & & & & ( U U U ",
"2 2 2 v ( U U U U U U ( 2 2 2 2 2 2 2 c = = = = : : : : $ $ $ $  . . . .< 1 1 1 2 2 2 2 > 1 1 1 2 2 2 2 2 2 3 c & & & & ( U U U ",
"2 2 2 2 2 2 2 2 2 2 2 2 2 2 2 2 1 1 1 1 = = = = , > > > $ $ $ $ U U U ( 5 5 5 5 0 0 0 0 h 2 2 2 U U U U 2 2 2 2 > > 1 1 1 1 1 1 ",
"2 2 2 2 2 2 2 2 2 2 2 2 2 2 2 2 1 1 1 1 = = = = , > > > $ $ $ $ U U U ( 5 5 5 5 0 0 0 0 h 2 2 2 U U U U 2 2 2 2 > > 1 1 1 1 1 1 ",
"2 2 2 2 2 2 2 2 2 2 2 2 2 2 2 2 1 1 1 1 = = = = 1 1 1 1 $ $ $ $ U U U ( 5 5 5 5 0 0 0 0 h 2 2 2 U U U U 2 2 2 2 > > 1 1 1 1 1 1 ",
"v v v v v v v 2 2 2 2 2 2 2 v v , , , > = = = = 1 1 1 1 $ $ $ $ U U U ` 5 5 5 5 0 0 0 0 h c v v U U U ( 2 2 2 2 > > 1 < 1 1 1 1 ",
"1 1 1 1 1 1 < > : : : : > > < < = = = = = = = = 1 1 1 1 $ $ $ $ U U U Z d d p p 2 2 2 2 , < 1 1 1 1 1 < 2 2 2 2 2 2 v v 1 1 1 1 ",
"1 1 1 1 1 1 1 > : : : : > > 1 1 = = = = = = = = 1 1 1 1 $ $ $ $ U U U U 0 0 0 0 3 3 h h 1 1 1 1 1 1 1 1 2 2 2 2 2 2 2 2 > 1 1 1 ",
"1 1 1 1 1 1 1 1 : : : : > , 1 1 = = = = = = = = 1 , > > $ $ $ $ U U U U y r 0 y 2 h 3 B , 1 1 1 1 1 1 1 2 h 2 2 2 2 h c 1 1 1 1 ",
"> > > > > > 1 1 : : : : > > < < = = = = * * = = 1 1 > > $ $ $ $ U U U U y r 0 y 2 2 3 B 1 1 1 1 > > > 1 2 2 2 2 2 2 h 2 1 1 1 1 ",
": : : : : : : : o o & & & & & & = = = = 1 > 1 1 3 2 2 2 $ $ $ $ 1 1 1 1 X o o & & & o & , 1 1 1 : : : : , 1 1 1 1 1 1 < : : : : ",
": : : : : : : : o & & & & o o o = = = * 1 1 , 1 3 2 2 2 $ $ $ $ 1 1 1 1 o & & & & & & & , 1 1 1 : : : : , 1 1 1 1 1 1 < : : : : ",
": : : : : : : : & & & & & o o o = = = = 1 1 , 1 2 2 2 2 $ $ $ $ > > > > & o & & & & & & , < < > : : : : > 1 1 1 1 1 1 , : : : : ",
": : : : : : : : & & % % % & & & = = = = 1 1 , 1 2 h 2 2 $ $ $ $ > > > > o & & % % & o & , , , , : : : : > < < < 1 1 1 > : : : : ",
"- - - -                               . - - - - $ $ $ $ $ $ $ $ $ $ $ $                         - - - - - - - -                 ",
"- - - -                                 - - - - $ $ $ $ $ $ $ $ $ $ $ $                         - - - - - - - -                 ",
"- - - -                                 - - - - $ $ $ $ $ $ $ $ $ $ $ $                         - - - - - - - -                 ",
"- - - -                                 - - - - $ $ $ $ $ $ $ $ $ $ $ $                         - - - - - - - -                 "
};
