/* XPM */
static char *_66d9e173932424891c31d85f0e11161GnyzRRFoPq9SH12Z[] = {
/* columns rows colors chars-per-pixel */
"64 64 7 1 ",
"  c #5A595A",
". c gray39",
"X c #6A6D6A",
"o c #787678",
"O c gray50",
"+ c #8B898B",
"@ c #9C999C",
/* pixels */
"++++@@@@@@@@@@@@@@@@@@@@@@@@@@@@@@@@@@@@@@@@@@@@++++++++++++    ",
"++++@@@@@@@@@@@@@@@@@@@@@@@@@@@@@@@@@@@@@@@@@@@@++++++++++++    ",
"++++@@@@@@@@@@@@@@@@@@@@@@@@@@@@@@@@@@@@@@@@@@@@++++++++++++    ",
"++++@@@@@@@@@@@@@@@@@@@@@@@@@@@@@@@@@@@@@@@@@@@@++++++++++++    ",
"@@@@OOOO++++OOOO++++++++++++++++++++OOOOOOOOOOOOOOOOOOOO++++    ",
"@@@@OOOO++++OOOO++++++++++++++++++++OOOOOOOOOOOOOOOOOOOO++++    ",
"@@@@OOOO++++OOOO++++++++++++++++++++OOOOOOOOOOOOOOOOOOOO++++    ",
"@@@@OOOO++++OOOO++++++++++++++++++++OOOOOOOOOOOOOOOOOOOO++++    ",
"@@@@++++OOOO++++OOOOOOOOOOOOOOOOOOOOOOOO++++++++ooooOOOOOOOO    ",
"@@@@++++OOOO++++OOOOOOOOOOOOOOOOOOOOOOOO++++++++ooooOOOOOOOO    ",
"@@@@++++OOOO++++OOOOOOOOOOOOOOOOOOOOOOOO++++++++ooooOOOOOOOO    ",
"@@@@++++OOOO++++OOOOOOOOOOOOOOOOOOOOOOOO++++++++ooooOOOOOOOO    ",
"@@@@OOOOooooOOOO++++++++OOOOooooOOOO++++OOOOooooOOOOoooooooo    ",
"@@@@OOOOooooOOOO++++++++OOOOooooOOOO++++OOOOooooOOOOoooooooo    ",
"@@@@OOOOooooOOOO++++++++OOOOooooOOOO++++OOOOooooOOOOoooooooo    ",
"@@@@OOOOooooOOOO++++++++OOOOooooOOOO++++OOOOooooOOOOoooooooo    ",
"@@@@ooooXXXXooooooooOOOO++++OOOOOOOOooooooooOOOOooooXXXXOOOO    ",
"@@@@ooooXXXXooooooooOOOO++++OOOOOOOOooooooooOOOOooooXXXXOOOO    ",
"@@@@ooooXXXXooooooooOOOO++++OOOOOOOOooooooooOOOOooooXXXXOOOO    ",
"@@@@ooooXXXXooooooooOOOO++++OOOOOOOOooooooooOOOOooooXXXXOOOO    ",
"++++ooooXXXXOOOOOOOOooooooooooooooooOOOO++++ooooXXXXOOOOoooo    ",
"++++ooooXXXXOOOOOOOOooooooooooooooooOOOO++++ooooXXXXOOOOoooo    ",
"++++ooooXXXXOOOOOOOOooooooooooooooooOOOO++++ooooXXXXOOOOoooo    ",
"++++ooooXXXXOOOOOOOOooooooooooooooooOOOO++++ooooXXXXOOOOoooo    ",
"XXXXXXXXXXXXXXXXXXXXXXXXXXXXXXXXXXXXXXXXXXXXXXXXXXXXXXXXXXXX    ",
"XXXXXXXXXXXXXXXXXXXXXXXXXXXXXXXXXXXXXXXXXXXXXXXXXXXXXXXXXXXX    ",
"XXXXXXXXXXXXXXXXXXXXXXXXXXXXXXXXXXXXXXXXXXXXXXXXXXXXXXXXXXXX    ",
"XXXXXXXXXXXXXXXXXXXXXXXXXXXXXXXXXXXXXXXXXXXXXXXXXXXXXXXXXXXX    ",
"........        ........            ............................",
"........        ........            ............................",
"........        ........            ............................",
"........        ........            ............................",
"@@@@@@@@@@@@@@@@@@@@@@@@++++    ++++@@@@@@@@@@@@@@@@@@@@@@@@@@@@",
"@@@@@@@@@@@@@@@@@@@@@@@@++++    ++++@@@@@@@@@@@@@@@@@@@@@@@@@@@@",
"@@@@@@@@@@@@@@@@@@@@@@@@++++    ++++@@@@@@@@@@@@@@@@@@@@@@@@@@@@",
"@@@@@@@@@@@@@@@@@@@@@@@@++++    ++++@@@@@@@@@@@@@@@@@@@@@@@@@@@@",
"oooo++++++++++++++++OOOOOOOO    @@@@++++OOOO++++++++++++++++OOOO",
"oooo++++++++++++++++OOOOOOOO    @@@@++++OOOO++++++++++++++++OOOO",
"oooo++++++++++++++++OOOOOOOO    @@@@++++OOOO++++++++++++++++OOOO",
"oooo++++++++++++++++OOOOOOOO    @@@@++++OOOO++++++++++++++++OOOO",
"++++OOOOOOOO++++OOOOOOOOoooo    @@@@OOOOoooo++++oooo++++OOOOOOOO",
"++++OOOOOOOO++++OOOOOOOOoooo    @@@@OOOOoooo++++oooo++++OOOOOOOO",
"++++OOOOOOOO++++OOOOOOOOoooo    @@@@OOOOoooo++++oooo++++OOOOOOOO",
"++++OOOOOOOO++++OOOOOOOOoooo    @@@@OOOOoooo++++oooo++++OOOOOOOO",
"OOOO++++++++OOOOOOOOooooXXXX    @@@@ooooOOOOooooOOOOOOOOOOOO++++",
"OOOO++++++++OOOOOOOOooooXXXX    @@@@ooooOOOOooooOOOOOOOOOOOO++++",
"OOOO++++++++OOOOOOOOooooXXXX    @@@@ooooOOOOooooOOOOOOOOOOOO++++",
"OOOO++++++++OOOOOOOOooooXXXX    @@@@ooooOOOOooooOOOOOOOOOOOO++++",
"OOOOOOOOOOOOOOOOooooOOOOoooo    ++++ooooooooOOOO++++OOOOoooooooo",
"OOOOOOOOOOOOOOOOooooOOOOoooo    ++++ooooooooOOOO++++OOOOoooooooo",
"OOOOOOOOOOOOOOOOooooOOOOoooo    ++++ooooooooOOOO++++OOOOoooooooo",
"OOOOOOOOOOOOOOOOooooOOOOoooo    ++++ooooooooOOOO++++OOOOoooooooo",
"ooooooooXXXXooooXXXXXXXXoooo    ++++OOOOOOOOooooooooOOOOOOOOoooo",
"ooooooooXXXXooooXXXXXXXXoooo    ++++OOOOOOOOooooooooOOOOOOOOoooo",
"ooooooooXXXXooooXXXXXXXXoooo    ++++OOOOOOOOooooooooOOOOOOOOoooo",
"ooooooooXXXXooooXXXXXXXXoooo    ++++OOOOOOOOooooooooOOOOOOOOoooo",
"XXXXXXXXXXXXXXXXXXXXXXXXXXXX    XXXXXXXXXXXXXXXXXXXXXXXXXXXXXXXX",
"XXXXXXXXXXXXXXXXXXXXXXXXXXXX    XXXXXXXXXXXXXXXXXXXXXXXXXXXXXXXX",
"XXXXXXXXXXXXXXXXXXXXXXXXXXXX    XXXXXXXXXXXXXXXXXXXXXXXXXXXXXXXX",
"XXXXXXXXXXXXXXXXXXXXXXXXXXXX    XXXXXXXXXXXXXXXXXXXXXXXXXXXXXXXX",
"........................                ........................",
"........................                ........................",
"........................                ........................",
"........................                ........................"
};
